<?xml version="1.0" encoding="utf-8"?>
<!-- Generator: Adobe Illustrator 22.0.1, SVG Export Plug-In . SVG Version: 6.00 Build 0)  -->
<svg version="1.1" id="Слой_1" xmlns="http://www.w3.org/2000/svg" xmlns:xlink="http://www.w3.org/1999/xlink" x="0px" y="0px"
	 viewBox="0 0 170.4 71.2" style="enable-background:new 0 0 170.4 71.2;" xml:space="preserve">
<style type="text/css">
	.st0{fill:#47196C;}
	.st1{fill:#FFFFFF;}
	.st2{fill:#F36D21;}
</style>
<path class="st0" d="M144.9,17.4c1.2,5.5,0.4,10.4-1.4,15.3c-3.9,10-10.8,17.6-19.3,23.9c-0.6,0.4-1.1,0.8-1.5,1.5
	c0.5-0.2,1-0.3,1.4-0.6c3.7-2.1,7.3-4.4,11-6.4c11.5-6.4,23.1-5.8,35.2-0.7c-2.5,3.5-4.8,6.8-7.2,10.2c-6.4-5.8-13.8-5.8-21.3-3.9
	c-5.4,1.4-10.7,3.5-15.8,5.8c-9.4,4.1-18.9,7.2-29.2,6.5c-6.2-0.5-12.1-2.1-17.1-6c-7.6-6.1-9.6-14.2-7.4-23.4
	c1.8-7.7,6.1-14,11.4-19.7c8.8-9.4,19.2-16.2,32.1-18.8c4.9-1,9.9-1,14.7,0.4c8.9,2.6,13.6,10.7,12.1,20.2
	c-1.6,9.9-6.7,17.9-13.6,24.8c-8.3,8.2-18,13.9-29.5,16.4c-0.6,0.1-1.2,0.2-1.8,0.3c-0.6,0.1-1.2,0.3-1.8,0.7c1.1,0,2.2,0.2,3.3,0
	c19.3-4.5,33.8-15.1,42.7-33c1-2,1.6-4.2,2.2-6.3C144.3,22.3,144.5,20.1,144.9,17.4z M92.9,58.3C92.9,58.4,92.9,58.4,92.9,58.3
	c2.1-0.2,4.2-0.4,6.2-0.8c4.6-1,9-2.4,12.9-5.2c2.2-1.6,2.6-2.7,1.7-5.2c-0.8-2-1.7-4-2.9-5.8c-4-5.9-8.5-6.5-13.3-1.2
	c-3.3,3.6-5.9,7.9-8.6,12c-3.5,5.4-0.6,5.8,3.7,6.1C92.8,58.3,92.8,58.3,92.9,58.3z M137.1,22.5c-0.3-2.4-1-3-3.3-2.7
	c-1.3,0.2-2.6,0.3-3.9,0.6c-4.8,1.2-9.6,2.5-13.6,5.4c-3.3,2.4-4.3,5.3-2.5,8.9c1.3,2.5,3.2,4.8,5.2,6.9c2.6,2.6,4.2,2.5,7,0
	c3.6-3.2,6.2-7.1,8.2-11.4C135.4,27.7,136.2,25.1,137.1,22.5z M75.1,43.3c0.1,3.5,1.2,6.9,2.9,8.8c1.5,1.6,2.8,1.9,4.1,0.5
	c4.3-4.3,8.2-9,10.6-14.6c1.5-3.6-0.1-5.7-4-5c-2.9,0.5-5.7,1.4-8.4,2.4C76,37,75,38.8,75.1,43.3z M118.1,19.5
	c3.4-0.1,10.7-2.2,15.3-4.6c2.6-1.4,3.1-2.9,1.5-5.4c-2.2-3.2-5.3-5.3-9.2-5.9c-1.1-0.2-2.8,0.1-3.5,0.8c-2.7,3.2-5.4,6.6-7.4,10.2
	C113,17.8,114.5,19.6,118.1,19.5z M78.4,31.4c4.9,0.9,14.5-3.1,17-7c1.5-2.3,1.2-4.8-0.7-7.3c-1.9-2.4-3-2.6-5.3-0.6
	c-4,3.4-7.3,7.4-9.9,12C79,29.4,78.7,30.4,78.4,31.4z M116.2,3.8c-0.3-0.1-0.5-0.2-0.7-0.2c-6.7,0.4-12.5,3-17.8,6.8
	c-0.4,0.3-0.6,0.9-0.6,1.4c0.1,4.1,4.9,7.2,8.6,5.3c5.2-2.6,8.1-7.4,10.4-12.5C116.3,4.4,116.2,4.1,116.2,3.8z M101.6,31.2
	c2.9,0,6.6-2.8,7.4-5.6c0.7-2.3-0.5-3.9-2.8-3.9c-2.9,0-6.8,3-7.5,5.8C98.2,29.8,99.3,31.3,101.6,31.2z"/>
<g>
	<path class="st1" d="M59.5,64.4H45.3l-6.3-12.3v12.3H27.3V37.8h11.6V49l6.9-11.2h13.1L50,50L59.5,64.4z"/>
	<path class="st1" d="M71.7,37.2c0,1.3-0.6,2.4-1.7,3.2c-1,0.7-2.3,1.1-3.7,1.1c-1.4,0-2.7-0.4-3.7-1.1c-1.2-0.8-1.7-1.9-1.7-3.2
		c0-1.3,0.6-2.4,1.7-3.3c1.1-0.8,2.3-1.1,3.7-1.1c1.4,0,2.7,0.4,3.7,1.1C71.2,34.8,71.7,35.8,71.7,37.2z M71.7,64.4H60.8V42.9h10.9
		V64.4z"/>
	<path class="st1" d="M100.4,64.4H89.8V51.8c0-1.9-0.7-2.9-2.2-2.9c-0.6,0-1.1,0.3-1.6,0.8v14.7H75.3V42.9h10.6v2.2
		c1.8-1.7,3.9-2.5,6.4-2.5c2.6,0,4.6,0.6,6,1.9c1.4,1.3,2.2,3.2,2.2,5.6V64.4z"/>
	<path class="st1" d="M130,53.5c0,3.3-1.4,6.1-4.2,8.3c-2.6,2.1-5.8,3.1-9.4,3.1c-3.7,0-6.8-1-9.4-3.1c-2.8-2.2-4.2-4.9-4.2-8.3
		c0-3.3,1.4-6,4.1-8.1c2.6-2,5.8-2.9,9.5-2.9c3.7,0,6.8,1,9.4,2.9C128.7,47.5,130,50.2,130,53.5z M119.4,53.5c0-2.1-1-3.2-2.9-3.2
		s-2.9,1.1-2.9,3.2c0,1.1,0.3,2,0.9,2.7c0.5,0.6,1.2,0.8,2,0.8c0.8,0,1.5-0.3,2-0.8C119.1,55.5,119.4,54.6,119.4,53.5z"/>
</g>
<g>
	<path class="st2" d="M35,15.9c0,1.2-0.1,2.6-0.3,4.1c-0.2,1.5-0.5,3.2-1,4.9c-0.5,1.8-1.1,3.6-2,5.5c-0.9,1.9-2,4-3.3,6
		c-2.7,4.2-5.8,7.6-9.1,10.2C16,49.2,12.4,50.7,8.7,51c-1.5,0.1-2.8-0.1-3.9-0.6c-1.1-0.5-2-1.2-2.7-2.1c-0.7-0.9-1.2-1.9-1.6-3.1
		c-0.3-1.2-0.5-2.3-0.5-3.5c0-3.2,0.5-6.3,1.4-9.2c1-2.9,2.1-5.5,3.5-7.9c1.4-2.3,2.8-4.3,4.3-6c1.5-1.7,2.8-2.9,3.9-3.7
		c1.4-2.7,3.2-4.9,5.6-6.3c2.4-1.5,4.9-2.3,7.4-2.6c1.6-0.1,2.9,0.1,4.1,0.6c1.1,0.5,2,1.3,2.7,2.2c0.7,1,1.2,2,1.5,3.3
		C34.8,13.4,35,14.7,35,15.9z M30.3,17.5c0-0.9-0.1-1.9-0.2-2.9c-0.2-1.1-0.5-2.1-1-3S27.9,9.9,27,9.4c-0.9-0.6-2.1-0.8-3.6-0.6
		c-1,0.1-1.9,0.3-2.8,0.7c-0.9,0.4-1.6,0.8-2.3,1.3c-0.7,0.5-1.2,1.1-1.7,1.6c-0.5,0.6-0.8,1.1-1,1.6c1.1-0.8,2.3-1.4,3.6-2
		c1.3-0.6,2.5-0.9,3.4-1c0.8-0.1,1.4-0.1,1.8,0c0.4,0.1,0.6,0.3,0.6,0.7c0,0.3-0.1,0.5-0.4,0.5c-0.3,0-0.6,0-0.9-0.1
		c-0.3-0.1-0.6-0.1-1.1-0.1c-0.6,0-1.2,0.2-1.9,0.4c-0.7,0.2-1.4,0.5-2.1,0.8c-0.7,0.3-1.4,0.7-2,1.2c-0.6,0.5-1.2,0.9-1.7,1.5
		c-0.1,0.3-0.1,0.6-0.1,0.8c0,0.2,0,0.5-0.1,0.8c-0.1,0.4-0.4,0.7-0.7,0.8c-0.4,0.2-0.7,0.2-1,0.3c-0.3,0-0.4-0.1-0.5-0.4
		c-0.1-0.3-0.1-0.5,0-0.8c-0.8,0.9-1.6,2-2.4,3.2c-0.9,1.2-1.6,2.7-2.4,4.3c-0.7,1.7-1.3,3.6-1.8,5.8c-0.5,2.2-0.7,4.7-0.7,7.5
		c0,1.2,0.1,2.4,0.4,3.6c0.2,1.2,0.6,2.2,1.2,3.1c0.6,0.9,1.3,1.6,2.2,2c0.9,0.5,2.1,0.7,3.5,0.5c2.1-0.2,4.2-1,6.1-2.5
		c1.9-1.5,3.7-3.5,5.4-6c1-1.4,1.9-3.1,2.6-4.9c0.8-1.8,1.4-3.7,1.9-5.6c0.5-1.9,0.9-3.8,1.2-5.7C30.2,20.8,30.3,19.1,30.3,17.5z"/>
	<path class="st2" d="M53.9,26c0,1.7-0.4,3.5-1.1,5.4c-0.7,1.9-1.6,3.7-2.7,5.5c-1.1,1.8-2.3,3.4-3.5,4.8c-1.3,1.5-2.4,2.6-3.5,3.4
		c-1,0.7-2,1.5-3.2,2.1c-1.2,0.7-2.3,1.1-3.5,1.2c-0.7,0.1-1.2,0-1.5-0.3c-0.3-0.3-0.4-0.6-0.4-1c0-0.8,0.2-1.6,0.6-2.5
		c0.4-0.9,1-1.8,1.6-2.7c0.7-0.9,1.4-1.8,2.2-2.7c0.8-0.9,1.7-1.7,2.5-2.5c1.5-1.3,2.9-2.4,4.2-3.3c1.3-0.9,2.4-1.7,3.5-2.3
		c0.2-0.6,0.3-1.1,0.3-1.6s0-0.9,0-1.4c0-0.8-0.1-1.5-0.3-2c-0.2-0.5-0.4-0.9-0.7-1.2c-0.3-0.3-0.7-0.5-1.1-0.5
		c-0.4-0.1-0.8-0.1-1.2-0.1c-0.8,0.1-1.9,0.6-3.2,1.5c-1.3,0.9-2.7,2.3-4.4,4.3c-0.4,0.9-0.8,2-1.2,3.2c-0.5,1.3-1,2.7-1.5,4.2
		c-0.5,1.5-1.1,3.2-1.7,5c-0.6,1.8-1.2,3.6-1.9,5.5c-0.6,1.7-1.2,3.4-1.7,5.1c-0.6,1.7-1.1,3.3-1.6,4.8c-0.5,1.5-0.9,3-1.4,4.3
		c-0.4,1.3-0.7,2.4-1,3.4c0,0.2-0.1,0.5-0.1,0.8c0,0.4-0.1,0.7-0.1,1.1c-0.1,0.3-0.2,0.7-0.5,1.2c-0.2,0.5-0.7,1-1.3,1.6
		c-0.8,0.7-1.6,1.1-2.5,1.2c-0.3,0-0.6-0.1-0.8-0.3c-0.2-0.2-0.3-0.6-0.3-1.1c0-0.3,0.1-0.9,0.2-1.6c0.1-0.7,0.5-1.8,1-3.1
		c1-2.7,1.9-5.5,2.9-8.2c0.8-2.3,1.8-4.8,2.7-7.5c1-2.7,1.9-5.2,2.7-7.5c0.5-1.3,0.9-2.5,1.3-3.7c0.4-1.1,0.8-2.2,1.1-3.2
		c0.4-1,0.7-2.1,1.1-3.2c0.4-1.1,0.8-2.3,1.2-3.6c0.4-1.1,0.8-2.2,1.2-3.4c0.4-1.2,0.7-1.9,1-2.2c0.6-0.6,1.2-1.1,1.9-1.5
		c0.7-0.4,1.1-0.6,1.3-0.6c0.1,0,0.3,0,0.4,0c0.1,0,0.1,0.1,0.1,0.3c0,0.1-0.1,0.4-0.2,0.8c-0.1,0.4-0.2,0.9-0.4,1.5
		c-0.2,0.6-0.4,1.2-0.6,1.9c-0.2,0.7-0.5,1.3-0.7,1.9l0.3,0c0.7-0.7,1.4-1.4,2.3-2.2c0.9-0.7,1.8-1.4,2.7-2c0.9-0.6,1.8-1.1,2.6-1.5
		c0.8-0.4,1.6-0.6,2.3-0.7c1.5-0.1,2.7,0.2,3.4,0.9C53.5,22.5,53.9,23.9,53.9,26z M48.7,32.9c-0.3,0.1-0.7,0.4-1.2,0.7
		c-0.5,0.3-1.1,0.7-1.7,1.1c-0.6,0.4-1.3,0.9-2,1.5c-0.7,0.6-1.3,1.1-1.9,1.7c-0.5,0.5-1,1.1-1.4,1.6c-0.5,0.6-0.9,1.1-1.3,1.7
		c-0.4,0.6-0.7,1.2-0.9,1.7c-0.2,0.6-0.4,1.2-0.4,1.7c0,0.7,0.5,0.9,1.5,0.9c0.5,0,1.1-0.2,1.7-0.6c0.6-0.3,1.3-0.9,1.9-1.6
		c0.4-0.4,0.9-1,1.4-1.7c0.5-0.7,1.1-1.5,1.6-2.4c0.5-0.9,1-1.9,1.5-3C48.1,35.3,48.5,34.1,48.7,32.9z"/>
	<path class="st2" d="M75.5,38.4c0,0.1-0.5,0.6-1.4,1.4c-1,0.8-2.2,1.6-3.7,2.6c-1.5,0.9-3.2,1.8-5.1,2.6c-1.9,0.8-3.7,1.3-5.6,1.4
		c-2.3,0.2-4.1-0.2-5.2-1.2c-1.2-1-1.7-2.7-1.7-5.1c0-1.5,0.4-3.5,1.3-5.8c0.9-2.3,2.3-4.7,4.2-7.2c1.1-1.4,2.2-2.7,3.4-3.7
		c1.2-1.1,2.3-1.9,3.3-2.6c1.1-0.7,2.1-1.2,3-1.6c0.9-0.4,1.7-0.6,2.4-0.6c1.1-0.1,1.8,0,2.2,0.2c0.4,0.2,0.6,0.7,0.6,1.4
		c0,0.9-0.6,2.1-1.9,3.6c-1.2,1.5-2.8,3.3-4.8,5.3c-0.8,0.8-1.7,1.7-2.7,2.7c-1,1-2,2-2.8,2.9c-1.1,1.1-2.1,2.1-3.2,3.2
		c-0.1,2.3,0.2,3.9,1.2,4.7c0.9,0.8,2.2,1.1,3.9,1c1.4-0.1,2.9-0.5,4.4-1.2c1.5-0.7,2.8-1.4,4-2.1c1.4-0.9,2.7-1.8,4-3
		c0.1,0.2,0.2,0.4,0.3,0.5C75.5,38,75.5,38.2,75.5,38.4z M68.4,23.1c0-0.6-0.2-0.9-0.5-1.1c-0.3-0.1-0.7-0.2-1.1-0.1
		c-0.7,0.1-1.6,0.4-2.6,1.1c-1.1,0.6-2,1.6-3,2.9c-0.4,0.6-0.8,1.2-1.2,2c-0.4,0.8-0.8,1.6-1.1,2.5c-0.4,0.9-0.6,1.9-0.9,2.9
		c-0.2,1-0.4,2-0.4,2.9c0.7-0.7,1.5-1.4,2.3-2.1c0.7-0.6,1.4-1.4,2.2-2.1c0.8-0.8,1.5-1.6,2.2-2.3c1.2-1.4,2.2-2.6,3-3.6
		C68,24.9,68.4,23.9,68.4,23.1z"/>
	<path class="st2" d="M100.9,35.1c-0.7,0.6-1.5,1.2-2.3,1.8c-0.8,0.6-1.6,1.3-2.4,1.8c-0.8,0.6-1.4,1-1.8,1.4
		c-3.8,2.8-6.4,4.3-7.6,4.4c-0.3,0-0.5-0.1-0.6-0.3c-0.1-0.2-0.1-0.5-0.1-0.8c0-0.3,0.1-0.8,0.2-1.5c0.1-0.7,0.3-1.4,0.6-2.3
		c0.2-0.9,0.5-1.8,0.8-2.8c0.3-1,0.5-1.9,0.8-2.8c0.3-1.1,0.7-2.2,1-3.3c0.3-1.1,0.6-2.1,0.8-2.9c0.2-0.9,0.4-1.6,0.6-2.2
		c0.1-0.6,0.2-0.9,0.2-1.1c0-0.4,0-0.6-0.1-0.8c0-0.2-0.2-0.2-0.5-0.2c-0.2,0-0.6,0.3-1.2,0.7c-0.6,0.5-1.2,1.1-2,1.9
		c-0.7,0.8-1.5,1.6-2.4,2.6c-0.9,1-1.7,2-2.5,3.1c-1,1.3-1.9,2.5-2.5,3.6c-0.6,1-1.2,2.1-1.7,3.2c-0.5,1.2-1,2.1-1.4,2.7
		c-0.4,0.7-0.7,1.2-1,1.6c-0.3,0.4-0.6,0.6-0.9,0.7c-0.3,0.1-0.6,0.2-0.9,0.2c-0.4,0-0.6-0.1-0.6-0.3c-0.1-0.3-0.1-0.5-0.1-0.7
		c0-0.8,0.3-2.1,1-3.7c0.3-0.7,0.5-1.2,0.7-1.7c0.2-0.5,0.3-0.8,0.4-1.1l2.2-7.8c0.1-0.5,0.3-1,0.4-1.6c0.1-0.6,0.3-1.2,0.4-1.7
		c0.1-0.6,0.3-1.1,0.4-1.5c0.1-0.5,0.2-0.8,0.3-1c0.1-0.6,0.4-1.1,0.9-1.6c0.4-0.5,0.9-0.9,1.4-1.2c0.5-0.3,1-0.6,1.4-0.8
		c0.5-0.2,0.8-0.3,1.1-0.3s0.4,0.2,0.4,0.6c0,0.3-0.2,0.9-0.5,1.7s-0.5,1.7-0.8,2.5c-0.3,1.1-0.6,2-0.8,2.7c-0.2,0.7-0.4,1.4-0.6,2
		c-0.2,0.6-0.4,1.1-0.6,1.7c-0.2,0.5-0.4,1.1-0.6,1.8l0.2,0c1.6-1.9,3.1-3.6,4.7-5.2c1.5-1.6,2.9-2.9,4.3-4.1
		c1.3-1.2,2.5-2.1,3.5-2.7c1-0.7,1.8-1,2.4-1.1c0.3,0,0.5,0.1,0.6,0.3c0.1,0.2,0.1,0.4,0.1,0.7c-0.1,1-0.4,2.4-1,4.3
		c-0.6,1.9-1.2,4.1-2,6.6c-0.1,0.5-0.3,1.1-0.6,2c-0.3,0.9-0.6,1.8-0.9,2.8c-0.3,0.9-0.6,1.8-0.8,2.6c-0.2,0.8-0.3,1.3-0.3,1.4
		c0,0.3,0,0.5,0.1,0.6c0,0.1,0.2,0.2,0.4,0.2c0.5,0,1.1-0.3,2-0.8c0.8-0.5,1.8-1.1,2.7-1.8c1-0.7,2-1.5,3-2.3c1-0.8,1.9-1.5,2.7-2.1
		l0.5,0.6C102.1,34,101.6,34.5,100.9,35.1z"/>
</g>
</svg>
