<svg width="140" height="74" viewBox="0 0 140 74" fill="none" xmlns="http://www.w3.org/2000/svg">
<path d="M64.5 64.4H50.3L44 52.1V64.4H32.3V37.8H43.9V49L50.8 37.8H63.9L55 50L64.5 64.4Z" fill="white"/>
<path d="M76.7 37.2C76.7 38.5 76.1 39.6 75 40.4C74 41.1 72.7 41.5 71.3 41.5C69.9 41.5 68.6 41.1 67.6 40.4C66.4 39.6 65.9 38.5 65.9 37.2C65.9 35.9 66.5 34.8 67.6 33.9C68.7 33.1 69.9 32.8 71.3 32.8C72.7 32.8 74 33.2 75 33.9C76.2 34.8 76.7 35.8 76.7 37.2ZM76.7 64.4H65.8V42.9H76.7V64.4Z" fill="white"/>
<path d="M105.4 64.4H94.8V51.8C94.8 49.9 94.1 48.9 92.6 48.9C92 48.9 91.5 49.2 91 49.7V64.4H80.3V42.9H90.9V45.1C92.7 43.4 94.8 42.6 97.3 42.6C99.9 42.6 101.9 43.2 103.3 44.5C104.7 45.8 105.5 47.7 105.5 50.1V64.4H105.4Z" fill="white"/>
<path d="M135 53.5C135 56.8 133.6 59.6 130.8 61.8C128.2 63.9 125 64.9 121.4 64.9C117.7 64.9 114.6 63.9 112 61.8C109.2 59.6 107.8 56.9 107.8 53.5C107.8 50.2 109.2 47.5 111.9 45.4C114.5 43.4 117.7 42.5 121.4 42.5C125.1 42.5 128.2 43.5 130.8 45.4C133.7 47.5 135 50.2 135 53.5ZM124.4 53.5C124.4 51.4 123.4 50.3 121.5 50.3C119.6 50.3 118.6 51.4 118.6 53.5C118.6 54.6 118.9 55.5 119.5 56.2C120 56.8 120.7 57 121.5 57C122.3 57 123 56.7 123.5 56.2C124.1 55.5 124.4 54.6 124.4 53.5Z" fill="white"/>
<path d="M40 15.9C40 17.1 39.9 18.5 39.7 20C39.5 21.5 39.2 23.2 38.7 24.9C38.2 26.7 37.6 28.5 36.7 30.4C35.8 32.3 34.7 34.4 33.4 36.4C30.7 40.6 27.6 44 24.3 46.6C21 49.2 17.4 50.7 13.7 51C12.2 51.1 10.9 50.9 9.8 50.4C8.7 49.9 7.8 49.2 7.1 48.3C6.4 47.4 5.9 46.4 5.5 45.2C5.2 44 5 42.9 5 41.7C5 38.5 5.5 35.4 6.4 32.5C7.4 29.6 8.5 27 9.9 24.6C11.3 22.3 12.7 20.3 14.2 18.6C15.7 16.9 17 15.7 18.1 14.9C19.5 12.2 21.3 10 23.7 8.6C26.1 7.1 28.6 6.3 31.1 6C32.7 5.9 34 6.1 35.2 6.6C36.3 7.1 37.2 7.9 37.9 8.8C38.6 9.8 39.1 10.8 39.4 12.1C39.8 13.4 40 14.7 40 15.9ZM35.3 17.5C35.3 16.6 35.2 15.6 35.1 14.6C34.9 13.5 34.6 12.5 34.1 11.6C33.6 10.7 32.9 9.9 32 9.4C31.1 8.8 29.9 8.6 28.4 8.8C27.4 8.9 26.5 9.1 25.6 9.5C24.7 9.9 24 10.3 23.3 10.8C22.6 11.3 22.1 11.9 21.6 12.4C21.1 13 20.8 13.5 20.6 14C21.7 13.2 22.9 12.6 24.2 12C25.5 11.4 26.7 11.1 27.6 11C28.4 10.9 29 10.9 29.4 11C29.8 11.1 30 11.3 30 11.7C30 12 29.9 12.2 29.6 12.2C29.3 12.2 29 12.2 28.7 12.1C28.4 12 28.1 12 27.6 12C27 12 26.4 12.2 25.7 12.4C25 12.6 24.3 12.9 23.6 13.2C22.9 13.5 22.2 13.9 21.6 14.4C21 14.9 20.4 15.3 19.9 15.9C19.8 16.2 19.8 16.5 19.8 16.7C19.8 16.9 19.8 17.2 19.7 17.5C19.6 17.9 19.3 18.2 19 18.3C18.6 18.5 18.3 18.5 18 18.6C17.7 18.6 17.6 18.5 17.5 18.2C17.4 17.9 17.4 17.7 17.5 17.4C16.7 18.3 15.9 19.4 15.1 20.6C14.2 21.8 13.5 23.3 12.7 24.9C12 26.6 11.4 28.5 10.9 30.7C10.4 32.9 10.2 35.4 10.2 38.2C10.2 39.4 10.3 40.6 10.6 41.8C10.8 43 11.2 44 11.8 44.9C12.4 45.8 13.1 46.5 14 46.9C14.9 47.4 16.1 47.6 17.5 47.4C19.6 47.2 21.7 46.4 23.6 44.9C25.5 43.4 27.3 41.4 29 38.9C30 37.5 30.9 35.8 31.6 34C32.4 32.2 33 30.3 33.5 28.4C34 26.5 34.4 24.6 34.7 22.7C35.2 20.8 35.3 19.1 35.3 17.5Z" fill="url(#paint0_linear)"/>
<path d="M58.9 26C58.9 27.7 58.5 29.5 57.8 31.4C57.1 33.3 56.2 35.1 55.1 36.9C54 38.7 52.8 40.3 51.6 41.7C50.3 43.2 49.2 44.3 48.1 45.1C47.1 45.8 46.1 46.6 44.9 47.2C43.7 47.9 42.6 48.3 41.4 48.4C40.7 48.5 40.2 48.4 39.9 48.1C39.6 47.8 39.5 47.5 39.5 47.1C39.5 46.3 39.7 45.5 40.1 44.6C40.5 43.7 41.1 42.8 41.7 41.9C42.4 41 43.1 40.1 43.9 39.2C44.7 38.3 45.6 37.5 46.4 36.7C47.9 35.4 49.3 34.3 50.6 33.4C51.9 32.5 53 31.7 54.1 31.1C54.3 30.5 54.4 30 54.4 29.5C54.4 29 54.4 28.6 54.4 28.1C54.4 27.3 54.3 26.6 54.1 26.1C53.9 25.6 53.7 25.2 53.4 24.9C53.1 24.6 52.7 24.4 52.3 24.4C51.9 24.3 51.5 24.3 51.1 24.3C50.3 24.4 49.2 24.9 47.9 25.8C46.6 26.7 45.2 28.1 43.5 30.1C43.1 31 42.7 32.1 42.3 33.3C41.8 34.6 41.3 36 40.8 37.5C40.3 39 39.7 40.7 39.1 42.5C38.5 44.3 37.9 46.1 37.2 48C36.6 49.7 36 51.4 35.5 53.1C34.9 54.8 34.4 56.4 33.9 57.9C33.4 59.4 33 60.9 32.5 62.2C32.1 63.5 31.8 64.6 31.5 65.6C31.5 65.8 31.4 66.1 31.4 66.4C31.4 66.8 31.3 67.1 31.3 67.5C31.2 67.8 31.1 68.2 30.8 68.7C30.6 69.2 30.1 69.7 29.5 70.3C28.7 71 27.9 71.4 27 71.5C26.7 71.5 26.4 71.4 26.2 71.2C26 71 25.9 70.6 25.9 70.1C25.9 69.8 26 69.2 26.1 68.5C26.2 67.8 26.6 66.7 27.1 65.4C28.1 62.7 29 59.9 30 57.2C30.8 54.9 31.8 52.4 32.7 49.7C33.7 47 34.6 44.5 35.4 42.2C35.9 40.9 36.3 39.7 36.7 38.5C37.1 37.4 37.5 36.3 37.8 35.3C38.2 34.3 38.5 33.2 38.9 32.1C39.3 31 39.7 29.8 40.1 28.5C40.5 27.4 40.9 26.3 41.3 25.1C41.7 23.9 42 23.2 42.3 22.9C42.9 22.3 43.5 21.8 44.2 21.4C44.9 21 45.3 20.8 45.5 20.8C45.6 20.8 45.8 20.8 45.9 20.8C46 20.8 46 20.9 46 21.1C46 21.2 45.9 21.5 45.8 21.9C45.7 22.3 45.6 22.8 45.4 23.4C45.2 24 45 24.6 44.8 25.3C44.6 26 44.3 26.6 44.1 27.2H44.4C45.1 26.5 45.8 25.8 46.7 25C47.6 24.3 48.5 23.6 49.4 23C50.3 22.4 51.2 21.9 52 21.5C52.8 21.1 53.6 20.9 54.3 20.8C55.8 20.7 57 21 57.7 21.7C58.5 22.5 58.9 23.9 58.9 26ZM53.7 32.9C53.4 33 53 33.3 52.5 33.6C52 33.9 51.4 34.3 50.8 34.7C50.2 35.1 49.5 35.6 48.8 36.2C48.1 36.8 47.5 37.3 46.9 37.9C46.4 38.4 45.9 39 45.5 39.5C45 40.1 44.6 40.6 44.2 41.2C43.8 41.8 43.5 42.4 43.3 42.9C43.1 43.5 42.9 44.1 42.9 44.6C42.9 45.3 43.4 45.5 44.4 45.5C44.9 45.5 45.5 45.3 46.1 44.9C46.7 44.6 47.4 44 48 43.3C48.4 42.9 48.9 42.3 49.4 41.6C49.9 40.9 50.5 40.1 51 39.2C51.5 38.3 52 37.3 52.5 36.2C53.1 35.3 53.5 34.1 53.7 32.9Z" fill="url(#paint1_linear)"/>
<path d="M80.5 38.4C80.5 38.5 80 39 79.1 39.8C78.1 40.6 76.9 41.4 75.4 42.4C73.9 43.3 72.2 44.2 70.3 45C68.4 45.8 66.6 46.3 64.7 46.4C62.4 46.6 60.6 46.2 59.5 45.2C58.3 44.2 57.8 42.5 57.8 40.1C57.8 38.6 58.2 36.6 59.1 34.3C60 32 61.4 29.6 63.3 27.1C64.4 25.7 65.5 24.4 66.7 23.4C67.9 22.3 69 21.5 70 20.8C71.1 20.1 72.1 19.6 73 19.2C73.9 18.8 74.7 18.6 75.4 18.6C76.5 18.5 77.2 18.6 77.6 18.8C78 19 78.2 19.5 78.2 20.2C78.2 21.1 77.6 22.3 76.3 23.8C75.1 25.3 73.5 27.1 71.5 29.1C70.7 29.9 69.8 30.8 68.8 31.8C67.8 32.8 66.8 33.8 66 34.7C64.9 35.8 63.9 36.8 62.8 37.9C62.7 40.2 63 41.8 64 42.6C64.9 43.4 66.2 43.7 67.9 43.6C69.3 43.5 70.8 43.1 72.3 42.4C73.8 41.7 75.1 41 76.3 40.3C77.7 39.4 79 38.5 80.3 37.3C80.4 37.5 80.5 37.7 80.6 37.8C80.5 38 80.5 38.2 80.5 38.4ZM73.4 23.1C73.4 22.5 73.2 22.2 72.9 22C72.6 21.9 72.2 21.8 71.8 21.9C71.1 22 70.2 22.3 69.2 23C68.1 23.6 67.2 24.6 66.2 25.9C65.8 26.5 65.4 27.1 65 27.9C64.6 28.7 64.2 29.5 63.9 30.4C63.5 31.3 63.3 32.3 63 33.3C62.8 34.3 62.6 35.3 62.6 36.2C63.3 35.5 64.1 34.8 64.9 34.1C65.6 33.5 66.3 32.7 67.1 32C67.9 31.2 68.6 30.4 69.3 29.7C70.5 28.3 71.5 27.1 72.3 26.1C73 24.9 73.4 23.9 73.4 23.1Z" fill="url(#paint2_linear)"/>
<path d="M105.9 35.1C105.2 35.7 104.4 36.3 103.6 36.9C102.8 37.5 102 38.2 101.2 38.7C100.4 39.3 99.8 39.7 99.4 40.1C95.6 42.9 93 44.4 91.8 44.5C91.5 44.5 91.3 44.4 91.2 44.2C91.1 44 91.1 43.7 91.1 43.4C91.1 43.1 91.2 42.6 91.3 41.9C91.4 41.2 91.6 40.5 91.9 39.6C92.1 38.7 92.4 37.8 92.7 36.8C93 35.8 93.2 34.9 93.5 34C93.8 32.9 94.2 31.8 94.5 30.7C94.8 29.6 95.1 28.6 95.3 27.8C95.5 26.9 95.7 26.2 95.9 25.6C96 25 96.1 24.7 96.1 24.5C96.1 24.1 96.1 23.9 96 23.7C96 23.5 95.8 23.5 95.5 23.5C95.3 23.5 94.9 23.8 94.3 24.2C93.7 24.7 93.1 25.3 92.3 26.1C91.6 26.9 90.8 27.7 89.9 28.7C89 29.7 88.2 30.7 87.4 31.8C86.4 33.1 85.5 34.3 84.9 35.4C84.3 36.4 83.7 37.5 83.2 38.6C82.7 39.8 82.2 40.7 81.8 41.3C81.4 42 81.1 42.5 80.8 42.9C80.5 43.3 80.2 43.5 79.9 43.6C79.6 43.7 79.3 43.8 79 43.8C78.6 43.8 78.4 43.7 78.4 43.5C78.3 43.2 78.3 43 78.3 42.8C78.3 42 78.6 40.7 79.3 39.1C79.6 38.4 79.8 37.9 80 37.4C80.2 36.9 80.3 36.6 80.4 36.3L82.6 28.5C82.7 28 82.9 27.5 83 26.9C83.1 26.3 83.3 25.7 83.4 25.2C83.5 24.6 83.7 24.1 83.8 23.7C83.9 23.2 84 22.9 84.1 22.7C84.2 22.1 84.5 21.6 85 21.1C85.4 20.6 85.9 20.2 86.4 19.9C86.9 19.6 87.4 19.3 87.8 19.1C88.3 18.9 88.6 18.8 88.9 18.8C89.2 18.8 89.3 19 89.3 19.4C89.3 19.7 89.1 20.3 88.8 21.1C88.5 21.9 88.3 22.8 88 23.6C87.7 24.7 87.4 25.6 87.2 26.3C87 27 86.8 27.7 86.6 28.3C86.4 28.9 86.2 29.4 86 30C85.8 30.5 85.6 31.1 85.4 31.8H85.6C87.2 29.9 88.7 28.2 90.3 26.6C91.8 25 93.2 23.7 94.6 22.5C95.9 21.3 97.1 20.4 98.1 19.8C99.1 19.1 99.9 18.8 100.5 18.7C100.8 18.7 101 18.8 101.1 19C101.2 19.2 101.2 19.4 101.2 19.7C101.1 20.7 100.8 22.1 100.2 24C99.6 25.9 99 28.1 98.2 30.6C98.1 31.1 97.9 31.7 97.6 32.6C97.3 33.5 97 34.4 96.7 35.4C96.4 36.3 96.1 37.2 95.9 38C95.7 38.8 95.6 39.3 95.6 39.4C95.6 39.7 95.6 39.9 95.7 40C95.7 40.1 95.9 40.2 96.1 40.2C96.6 40.2 97.2 39.9 98.1 39.4C98.9 38.9 99.9 38.3 100.8 37.6C101.8 36.9 102.8 36.1 103.8 35.3C104.8 34.5 105.7 33.8 106.5 33.2L107 33.8C107.1 34 106.6 34.5 105.9 35.1Z" fill="url(#paint3_linear)"/>
<defs>
<linearGradient id="paint0_linear" x1="22.5" y1="5.975" x2="22.5" y2="51.025" gradientUnits="userSpaceOnUse">
<stop stop-color="#FF6B00"/>
<stop offset="0.484375" stop-color="#E90B0B"/>
<stop offset="1" stop-color="#420000"/>
</linearGradient>
<linearGradient id="paint1_linear" x1="42.4" y1="20.7812" x2="42.4" y2="71.5" gradientUnits="userSpaceOnUse">
<stop stop-color="#FF6B00"/>
<stop offset="0.484375" stop-color="#E90B0B"/>
<stop offset="1" stop-color="#420000"/>
</linearGradient>
<linearGradient id="paint2_linear" x1="69.2" y1="18.5608" x2="69.2" y2="46.45" gradientUnits="userSpaceOnUse">
<stop stop-color="#FF6B00"/>
<stop offset="0.484375" stop-color="#E90B0B"/>
<stop offset="1" stop-color="#420000"/>
</linearGradient>
<linearGradient id="paint3_linear" x1="92.6564" y1="18.7" x2="92.6564" y2="44.5" gradientUnits="userSpaceOnUse">
<stop stop-color="#FF6B00"/>
<stop offset="0.484375" stop-color="#E90B0B"/>
<stop offset="1" stop-color="#420000"/>
</linearGradient>
</defs>
</svg>
