<svg width="45" height="45" viewBox="0 0 45 45" fill="none" xmlns="http://www.w3.org/2000/svg">
<path d="M21.75 3C11.4 3 3 11.4 3 21.75C3 32.1 11.4 40.5 21.75 40.5C32.1 40.5 40.5 32.1 40.5 21.75C40.5 11.4 32.1 3 21.75 3ZM12.5063 33.525C13.3125 31.8375 18.225 30.1875 21.75 30.1875C25.275 30.1875 30.2063 31.8375 30.9938 33.525C28.4438 35.55 25.2375 36.75 21.75 36.75C18.2625 36.75 15.0563 35.55 12.5063 33.525ZM33.675 30.8062C30.9938 27.5438 24.4875 26.4375 21.75 26.4375C19.0125 26.4375 12.5063 27.5438 9.825 30.8062C7.9125 28.2937 6.75 25.1625 6.75 21.75C6.75 13.4813 13.4813 6.75 21.75 6.75C30.0188 6.75 36.75 13.4813 36.75 21.75C36.75 25.1625 35.5875 28.2937 33.675 30.8062ZM21.75 10.5C18.1125 10.5 15.1875 13.425 15.1875 17.0625C15.1875 20.7 18.1125 23.625 21.75 23.625C25.3875 23.625 28.3125 20.7 28.3125 17.0625C28.3125 13.425 25.3875 10.5 21.75 10.5ZM21.75 19.875C20.1938 19.875 18.9375 18.6187 18.9375 17.0625C18.9375 15.5063 20.1938 14.25 21.75 14.25C23.3063 14.25 24.5625 15.5063 24.5625 17.0625C24.5625 18.6187 23.3063 19.875 21.75 19.875Z" fill="white"/>
</svg>
